<svg width="311" height="50" fill="none" xmlns="http://www.w3.org/2000/svg"><g clip-path="url(#clip0)"><rect width="50" height="50" rx="7" fill="#2288F5"/><path d="M12.568 15.4h3.584V35h-3.584V15.4zm26.046 9.8c0 2.427-.597 4.517-1.791 6.272l1.764 1.68-2.213 2.38-1.848-1.764c-1.642 1.083-3.5 1.624-5.572 1.624-1.848 0-3.509-.42-4.983-1.26-1.456-.859-2.605-2.053-3.445-3.584-.82-1.55-1.232-3.332-1.232-5.348s.411-3.79 1.232-5.32c.84-1.55 1.989-2.744 3.445-3.584 1.474-.859 3.136-1.288 4.983-1.288 1.848 0 3.5.43 4.956 1.288 1.475.84 2.623 2.035 3.445 3.584.84 1.53 1.26 3.304 1.26 5.32zm-9.66 6.72c1.14 0 2.11-.224 2.912-.672l-2.323-2.212 2.212-2.38 2.351 2.24c.505-1.045.756-2.277.756-3.696 0-2.016-.513-3.64-1.54-4.872-1.008-1.232-2.464-1.848-4.368-1.848-1.904 0-3.369.616-4.396 1.848-1.008 1.232-1.511 2.856-1.511 4.872s.503 3.64 1.511 4.872c1.027 1.232 2.492 1.848 4.396 1.848z" fill="#fff"/><path d="M74.848 19l-3.44-11.2h-.08l.06 1.2c.026.533.053 1.107.08 1.72.026.6.04 1.147.04 1.64V19h-2.7V4.72h4.12l3.38 10.92h.06l3.58-10.92h4.12V19h-2.82v-6.76c0-.453.006-.973.02-1.56.026-.587.046-1.14.06-1.66l.06-1.2h-.08L77.628 19h-2.78zM91.935 7.88c1.507 0 2.7.433 3.58 1.3.88.853 1.32 2.073 1.32 3.66v1.44h-7.04c.027.84.273 1.5.74 1.98.48.48 1.14.72 1.98.72.707 0 1.347-.067 1.92-.2a9.735 9.735 0 001.78-.66v2.3a6.72 6.72 0 01-1.7.58c-.587.133-1.3.2-2.14.2-1.093 0-2.06-.2-2.9-.6a4.593 4.593 0 01-1.98-1.86c-.48-.827-.72-1.867-.72-3.12 0-1.28.213-2.34.64-3.18.44-.853 1.047-1.493 1.82-1.92.773-.427 1.673-.64 2.7-.64zm.02 2.12c-.573 0-1.053.187-1.44.56-.373.373-.593.953-.66 1.74h4.18c-.013-.667-.187-1.213-.52-1.64-.333-.44-.853-.66-1.56-.66zm22.816-1.92l-4.02 5.24 4.4 5.68h-3.18l-4.16-5.54V19h-2.78v-5.54l-4.16 5.54h-3.18l4.4-5.68-4.02-5.24h3.08l3.88 5.3v-5.3h2.78v5.3l3.88-5.3h3.08zm11.761 0v8.74h1.6v6.1h-2.68V19h-7.34v3.92h-2.68v-6.1h.92c.48-.733.887-1.567 1.22-2.5.334-.947.6-1.953.8-3.02.2-1.067.347-2.14.44-3.22h7.72zm-5.22 2.24a29.48 29.48 0 01-.66 3.46 13.689 13.689 0 01-1.18 3.04h4.08v-6.5h-2.24zm7.122-2.24h3.26l2.06 6.14c.106.293.186.6.24.92.053.307.093.633.12.98h.06c.04-.347.093-.673.16-.98.08-.32.166-.627.26-.92l2.02-6.14h3.2l-4.62 12.32c-.414 1.133-1.02 1.98-1.82 2.54-.787.573-1.7.86-2.74.86-.334 0-.627-.02-.88-.06a6.494 6.494 0 01-.64-.1v-2.36c.146.027.32.053.52.08.213.027.433.04.66.04.626 0 1.12-.193 1.48-.58.373-.373.646-.827.82-1.36l.18-.54-4.34-10.84zm15.926 0v4.2h4.16v-4.2h2.98V19h-2.98v-4.5h-4.16V19h-2.98V8.08h2.98zm14.743-.22c1.466 0 2.586.32 3.36.96.786.627 1.18 1.593 1.18 2.9V19h-2.08l-.58-1.48h-.08c-.467.587-.96 1.013-1.48 1.28-.52.267-1.234.4-2.14.4-.974 0-1.78-.28-2.42-.84-.64-.573-.96-1.447-.96-2.62 0-1.16.406-2.013 1.22-2.56.813-.56 2.033-.867 3.66-.92l1.9-.06v-.48c0-.573-.154-.993-.46-1.26-.294-.267-.707-.4-1.24-.4-.534 0-1.054.08-1.56.24a11.61 11.61 0 00-1.52.56l-.98-2.02a8.568 8.568 0 011.94-.72 9.534 9.534 0 012.24-.26zm.42 6.12c-.96.027-1.627.2-2 .52-.374.32-.56.74-.56 1.26 0 .453.133.78.4.98.266.187.613.28 1.04.28.64 0 1.18-.187 1.62-.56.44-.387.66-.927.66-1.62v-.9l-1.16.04zm13.25-6.1c1.226 0 2.22.48 2.98 1.44.76.947 1.14 2.347 1.14 4.2 0 1.853-.394 3.267-1.18 4.24-.787.96-1.794 1.44-3.02 1.44-.787 0-1.414-.14-1.88-.42a4.615 4.615 0 01-1.14-.98h-.16c.106.56.16 1.093.16 1.6v4.4h-2.98V8.08h2.42l.42 1.42h.14a4.01 4.01 0 011.18-1.14c.493-.32 1.133-.48 1.92-.48zm-.96 2.38c-.774 0-1.32.24-1.64.72-.307.48-.474 1.213-.5 2.2v.32c0 1.053.153 1.867.46 2.44.32.56.893.84 1.72.84.68 0 1.18-.28 1.5-.84.333-.573.5-1.393.5-2.46 0-2.147-.68-3.22-2.04-3.22zm17.456 3.26c0 1.813-.48 3.213-1.44 4.2-.947.987-2.24 1.48-3.88 1.48-1.013 0-1.92-.22-2.72-.66-.787-.44-1.407-1.08-1.86-1.92-.453-.853-.68-1.887-.68-3.1 0-1.813.473-3.207 1.42-4.18.947-.973 2.247-1.46 3.9-1.46 1.027 0 1.933.22 2.72.66.787.44 1.407 1.08 1.86 1.92.453.827.68 1.847.68 3.06zm-7.54 0c0 1.08.173 1.9.52 2.46.36.547.94.82 1.74.82.787 0 1.353-.273 1.7-.82.36-.56.54-1.38.54-2.46s-.18-1.887-.54-2.42c-.347-.547-.92-.82-1.72-.82-.787 0-1.36.273-1.72.82-.347.533-.52 1.34-.52 2.42zm19.823-5.44v8.74h1.6v6.1h-2.68V19h-7.34v3.92h-2.68v-6.1h.92c.48-.733.887-1.567 1.22-2.5.333-.947.6-1.953.8-3.02.2-1.067.347-2.14.44-3.22h7.72zm-5.22 2.24a29.48 29.48 0 01-.66 3.46 13.689 13.689 0 01-1.18 3.04h4.08v-6.5h-2.24zm11.661-2.24v4.2h4.16v-4.2h2.98V19h-2.98v-4.5h-4.16V19h-2.98V8.08h2.98zM218.255 19V8.08h2.98v4.22h1.44c1.667 0 2.9.267 3.7.8.8.533 1.2 1.34 1.2 2.42 0 1.053-.373 1.9-1.12 2.54-.746.627-1.973.94-3.68.94h-4.52zm10.9 0V8.08h2.98V19h-2.98zm-6.54-2.06c.587 0 1.06-.107 1.42-.32.374-.213.56-.567.56-1.06 0-.8-.673-1.2-2.02-1.2h-1.34v2.58h1.38zm17.133-9.06c1.506 0 2.7.433 3.58 1.3.88.853 1.32 2.073 1.32 3.66v1.44h-7.04c.026.84.273 1.5.74 1.98.48.48 1.14.72 1.98.72a8.52 8.52 0 001.92-.2 9.762 9.762 0 001.78-.66v2.3c-.534.267-1.1.46-1.7.58-.587.133-1.3.2-2.14.2-1.094 0-2.06-.2-2.9-.6a4.593 4.593 0 01-1.98-1.86c-.48-.827-.72-1.867-.72-3.12 0-1.28.213-2.34.64-3.18.44-.853 1.046-1.493 1.82-1.92.773-.427 1.673-.64 2.7-.64zm.02 2.12c-.574 0-1.054.187-1.44.56-.374.373-.594.953-.66 1.74h4.18c-.014-.667-.187-1.213-.52-1.64-.334-.44-.854-.66-1.56-.66zm20.828.32h-3.58V19h-2.98v-8.68h-3.58V8.08h10.14v2.24zm6.319-2.44c1.507 0 2.7.433 3.58 1.3.88.853 1.32 2.073 1.32 3.66v1.44h-7.04c.027.84.274 1.5.74 1.98.48.48 1.14.72 1.98.72a8.49 8.49 0 001.92-.2 9.708 9.708 0 001.78-.66v2.3a6.72 6.72 0 01-1.7.58c-.586.133-1.3.2-2.14.2-1.093 0-2.06-.2-2.9-.6a4.593 4.593 0 01-1.98-1.86c-.48-.827-.72-1.867-.72-3.12 0-1.28.214-2.34.64-3.18.44-.853 1.047-1.493 1.82-1.92.774-.427 1.674-.64 2.7-.64zm.02 2.12c-.573 0-1.053.187-1.44.56-.373.373-.593.953-.66 1.74h4.18c-.013-.667-.186-1.213-.52-1.64-.333-.44-.853-.66-1.56-.66zm11.737 9.2c-1.627 0-2.887-.447-3.78-1.34-.88-.907-1.32-2.327-1.32-4.26 0-1.333.227-2.42.68-3.26.453-.84 1.08-1.46 1.88-1.86.813-.4 1.747-.6 2.8-.6.747 0 1.393.073 1.94.22.56.147 1.047.32 1.46.52l-.88 2.3c-.467-.187-.907-.34-1.32-.46-.4-.12-.8-.18-1.2-.18-1.547 0-2.32 1.1-2.32 3.3 0 1.093.2 1.9.6 2.42.413.52.987.78 1.72.78.627 0 1.18-.08 1.66-.24a6.86 6.86 0 001.4-.7v2.54c-.453.293-.933.5-1.44.62-.493.133-1.12.2-1.88.2zm14.873-8.88h-3.58V19h-2.98v-8.68h-3.58V8.08h10.14v2.24zM295.56 19V8.08h2.98v4.22h1.44c1.667 0 2.9.267 3.7.8.8.533 1.2 1.34 1.2 2.42 0 1.053-.373 1.9-1.12 2.54-.747.627-1.973.94-3.68.94h-4.52zm10.9 0V8.08h2.98V19h-2.98zm-6.54-2.06c.587 0 1.06-.107 1.42-.32.373-.213.56-.567.56-1.06 0-.8-.673-1.2-2.02-1.2h-1.34v2.58h1.38zM112.649 31h2.56v14h-2.56V31zm10.129 3.84c1.24 0 2.18.413 2.82 1.24.64.827.96 1.94.96 3.34V45h-2.48v-5.38c0-.933-.16-1.62-.48-2.06-.307-.453-.807-.68-1.5-.68-.76 0-1.387.287-1.88.86V45h-2.48V35h2.32l.04.7c.84-.573 1.733-.86 2.68-.86zm9.138 10.36c-.88 0-1.547-.253-2-.76-.453-.52-.68-1.14-.68-1.86v-5.54h-1.42l.22-2.04h1.2v-2.2l2.48-.26V35h2.2v2.04h-2.2v4.52c0 .533.027.907.08 1.12a.6.6 0 00.38.4c.2.053.553.08 1.06.08h.68l-.22 2.04h-1.78zm8.435 0c-1.16 0-2.153-.233-2.98-.7-.813-.48-1.427-1.113-1.84-1.9-.4-.8-.6-1.687-.6-2.66 0-.933.193-1.787.58-2.56a4.48 4.48 0 011.68-1.84c.733-.467 1.607-.7 2.62-.7.933 0 1.72.193 2.36.58a3.66 3.66 0 011.46 1.56c.333.653.5 1.387.5 2.2 0 .4-.053.853-.16 1.36h-6.46c.133.88.48 1.54 1.04 1.98.56.427 1.233.64 2.02.64 1.08 0 2.08-.273 3-.82l.12 2.1a6.788 6.788 0 01-1.5.56c-.56.133-1.173.2-1.84.2zm1.26-6.34c0-.52-.147-.98-.44-1.38-.293-.4-.747-.6-1.36-.6-.613 0-1.107.18-1.48.54-.373.36-.627.84-.76 1.44h4.04zm4.213-3.86h2.32l.06 1.06a4.204 4.204 0 011.12-.88 3.02 3.02 0 011.46-.38c.16 0 .307.013.44.04l-.18 2.44c-.253-.067-.54-.1-.86-.1-.413 0-.793.1-1.14.3-.347.187-.593.42-.74.7V45h-2.48V35zm11.642-.16c1.24 0 2.18.413 2.82 1.24.64.827.96 1.94.96 3.34V45h-2.48v-5.38c0-.933-.16-1.62-.48-2.06-.307-.453-.807-.68-1.5-.68-.76 0-1.387.287-1.88.86V45h-2.48V35h2.32l.04.7c.84-.573 1.733-.86 2.68-.86zm8.155 10.36c-.827 0-1.52-.267-2.08-.8-.547-.547-.82-1.28-.82-2.2 0-.867.313-1.56.94-2.08a5.377 5.377 0 012.22-1.12 11.036 11.036 0 012.46-.38c-.027-.587-.18-1.007-.46-1.26-.267-.253-.714-.38-1.34-.38-.44 0-.874.06-1.3.18-.414.12-.894.313-1.44.58l-.22-2.02c1.213-.587 2.426-.88 3.64-.88 1.173 0 2.066.32 2.68.96.626.64.94 1.66.94 3.06v2.7c0 .507.02.873.06 1.1.053.213.133.353.24.42.12.053.313.08.58.08h.32l-.22 2.04h-.9c-.547 0-1.007-.1-1.38-.3-.374-.213-.66-.5-.86-.86-.32.36-.76.647-1.32.86-.547.2-1.127.3-1.74.3zm1.04-1.9c.253 0 .54-.06.86-.18.32-.133.6-.313.84-.54V40.3c-.8.04-1.507.213-2.12.52-.614.307-.92.733-.92 1.28 0 .413.106.72.32.92.213.187.553.28 1.02.28zm9.864 1.9c-.88 0-1.546-.253-2-.76-.453-.52-.68-1.14-.68-1.86v-5.54h-1.42l.22-2.04h1.2v-2.2l2.48-.26V35h2.2v2.04h-2.2v4.52c0 .533.027.907.08 1.12.067.2.194.333.38.4.2.053.554.08 1.06.08h.68l-.22 2.04h-1.78zM180.14 31h2.48v2.48h-2.48V31zm0 4h2.48v10h-2.48V35zm9.345 10.2c-1.053 0-1.967-.233-2.74-.7a4.731 4.731 0 01-1.78-1.88 5.507 5.507 0 01-.62-2.6c0-.947.207-1.82.62-2.62a4.698 4.698 0 011.78-1.9c.773-.467 1.687-.7 2.74-.7 1.053 0 1.967.233 2.74.7a4.698 4.698 0 011.78 1.9c.413.8.62 1.673.62 2.62 0 .947-.207 1.813-.62 2.6a4.731 4.731 0 01-1.78 1.88c-.773.467-1.687.7-2.74.7zm0-2.04c.813 0 1.447-.287 1.9-.86.467-.573.7-1.333.7-2.28 0-.96-.233-1.727-.7-2.3-.453-.587-1.087-.88-1.9-.88s-1.453.293-1.92.88c-.453.573-.68 1.34-.68 2.3 0 .947.227 1.707.68 2.28.467.573 1.107.86 1.92.86zm11.906-8.32c1.24 0 2.18.413 2.82 1.24.64.827.96 1.94.96 3.34V45h-2.48v-5.38c0-.933-.16-1.62-.48-2.06-.306-.453-.806-.68-1.5-.68-.76 0-1.386.287-1.88.86V45h-2.48V35h2.32l.04.7c.84-.573 1.734-.86 2.68-.86zm8.156 10.36c-.827 0-1.52-.267-2.08-.8-.547-.547-.82-1.28-.82-2.2 0-.867.313-1.56.94-2.08a5.377 5.377 0 012.22-1.12 11.036 11.036 0 012.46-.38c-.027-.587-.18-1.007-.46-1.26-.267-.253-.714-.38-1.34-.38-.44 0-.874.06-1.3.18-.414.12-.894.313-1.44.58l-.22-2.02c1.213-.587 2.426-.88 3.64-.88 1.173 0 2.066.32 2.68.96.626.64.94 1.66.94 3.06v2.7c0 .507.02.873.06 1.1.053.213.133.353.24.42.12.053.313.08.58.08h.32l-.22 2.04h-.9c-.547 0-1.007-.1-1.38-.3-.374-.213-.66-.5-.86-.86-.32.36-.76.647-1.32.86-.547.2-1.127.3-1.74.3zm1.04-1.9c.253 0 .54-.06.86-.18.32-.133.6-.313.84-.54V40.3c-.8.04-1.507.213-2.12.52-.614.307-.92.733-.92 1.28 0 .413.106.72.32.92.213.187.553.28 1.02.28zm9.321 1.9c-.854 0-1.494-.24-1.92-.72-.427-.493-.64-1.127-.64-1.9V30h2.48v11.56c0 .533.026.913.08 1.14.066.213.173.347.32.4.16.04.426.06.8.06l-.22 2.04h-.9zm10.446 0c-.88 0-1.547-.253-2-.76-.454-.52-.68-1.14-.68-1.86v-5.54h-1.42l.22-2.04h1.2v-2.2l2.48-.26V35h2.2v2.04h-2.2v4.52c0 .533.026.907.08 1.12a.6.6 0 00.38.4c.2.053.553.08 1.06.08h.68l-.22 2.04h-1.78zm8.435 0c-1.16 0-2.154-.233-2.98-.7-.814-.48-1.427-1.113-1.84-1.9-.4-.8-.6-1.687-.6-2.66 0-.933.193-1.787.58-2.56a4.466 4.466 0 011.68-1.84c.733-.467 1.606-.7 2.62-.7.933 0 1.72.193 2.36.58a3.66 3.66 0 011.46 1.56c.333.653.5 1.387.5 2.2 0 .4-.054.853-.16 1.36h-6.46c.133.88.48 1.54 1.04 1.98.56.427 1.233.64 2.02.64 1.08 0 2.08-.273 3-.82l.12 2.1a6.788 6.788 0 01-1.5.56c-.56.133-1.174.2-1.84.2zm1.26-6.34c0-.52-.147-.98-.44-1.38-.294-.4-.747-.6-1.36-.6-.614 0-1.107.18-1.48.54-.374.36-.627.84-.76 1.44h4.04zm7.053 6.34c-.64 0-1.227-.06-1.76-.18a8.683 8.683 0 01-1.62-.56l.22-2.12c.56.333 1.08.587 1.56.76.493.16 1 .24 1.52.24 1.013 0 1.52-.333 1.52-1 0-.36-.134-.633-.4-.82-.267-.2-.747-.433-1.44-.7-.987-.36-1.714-.767-2.18-1.22-.467-.467-.7-1.093-.7-1.88 0-.867.333-1.567 1-2.1.666-.547 1.566-.82 2.7-.82 1.133 0 2.166.26 3.1.78l-.22 2.12a7.955 7.955 0 00-1.44-.8 3.548 3.548 0 00-1.4-.28c-.427 0-.76.087-1 .26-.227.173-.34.42-.34.74 0 .253.066.46.2.62.146.16.346.307.6.44.253.12.673.293 1.26.52.973.373 1.673.787 2.1 1.24.426.44.64 1.033.64 1.78 0 .947-.34 1.68-1.02 2.2-.68.52-1.647.78-2.9.78zm8.877 0c-.88 0-1.547-.253-2-.76-.454-.52-.68-1.14-.68-1.86v-5.54h-1.42l.22-2.04h1.2v-2.2l2.48-.26V35h2.2v2.04h-2.2v4.52c0 .533.026.907.08 1.12a.6.6 0 00.38.4c.2.053.553.08 1.06.08h.68l-.22 2.04h-1.78zm6.455 0c-.64 0-1.227-.06-1.76-.18a8.683 8.683 0 01-1.62-.56l.22-2.12c.56.333 1.08.587 1.56.76.493.16 1 .24 1.52.24 1.013 0 1.52-.333 1.52-1 0-.36-.134-.633-.4-.82-.267-.2-.747-.433-1.44-.7-.987-.36-1.714-.767-2.18-1.22-.467-.467-.7-1.093-.7-1.88 0-.867.333-1.567 1-2.1.666-.547 1.566-.82 2.7-.82 1.133 0 2.166.26 3.1.78l-.22 2.12a7.955 7.955 0 00-1.44-.8 3.548 3.548 0 00-1.4-.28c-.427 0-.76.087-1 .26-.227.173-.34.42-.34.74 0 .253.066.46.2.62.146.16.346.307.6.44.253.12.673.293 1.26.52.973.373 1.673.787 2.1 1.24.426.44.64 1.033.64 1.78 0 .947-.34 1.68-1.02 2.2-.68.52-1.647.78-2.9.78z" fill="#2A2B2A"/></g><defs><clipPath id="clip0"><path fill="#fff" d="M0 0h311v50H0z"/></clipPath></defs></svg>